<?xml version="1.0" standalone="no"?>
<!DOCTYPE svg PUBLIC "-//W3C//DTD SVG 20010904//EN"
 "http://www.w3.org/TR/2001/REC-SVG-20010904/DTD/svg10.dtd">
<svg version="1.0" xmlns="http://www.w3.org/2000/svg"
 width="500.000000pt" height="500.000000pt" viewBox="0 0 500.000000 500.000000"
 preserveAspectRatio="xMidYMid meet">

<g transform="translate(-780.000000,1180.000000) scale(0.100000,-0.100000)"
stroke="none">
<path d="M10478 11739 c-10 -5 -541 -578 -1180 -1272 -640 -694 -1232 -1336
-1315 -1427 -84 -91 -153 -167 -153 -171 0 -4 663 -622 1934 -1801 105 -98
194 -177 197 -175 3 1 153 154 333 340 225 231 332 335 340 329 262 -209 622
-480 656 -496 34 -15 66 -20 130 -21 77 0 92 3 152 33 64 32 94 61 649 664
l581 631 -1118 1118 -1117 1117 7 183 c3 101 7 350 8 552 l3 369 -24 19 c-25
21 -56 24 -83 8z"/>
</g>
</svg>
